<svg width="584" height="235" viewBox="0 0 584 235" fill="none" xmlns="http://www.w3.org/2000/svg">
<path d="M222.889 104.674C213.347 84.914 185.999 87.318 162.783 95.282C167.641 91.5253 172.399 87.7187 177.058 83.862C188.178 74.846 202.078 66.807 196.968 50.502C191.859 34.199 172.475 30.968 159.402 39.007C151.41 44.429 144.672 51.4999 139.642 59.744C145.577 33.297 144.225 4.89702 118.229 1.06502C83.668 -4.04398 86.899 38.632 93.359 71.315C76.53 44.342 50.535 15.64 29.423 47.347C18.903 62.825 30.173 76.123 42.421 85.44C50.46 91.6 59.1 97.987 68.041 103.697C37.086 96.184 -6.11499 92.427 1.32301 130.369C3.87701 143.067 14.546 145.396 25.891 145.02C38.6219 144.725 51.3091 143.418 63.833 141.113C36.936 157.493 3.12601 182.662 26.868 204.601C41.895 218.425 56.921 211.212 69.844 199.792C78.7321 192.345 86.6797 183.842 93.511 174.472C90.9185 185.494 89.1602 196.696 88.251 207.982C87.973 211.301 88.3791 214.642 89.4443 217.799C90.5095 220.955 92.2111 223.858 94.4437 226.33C96.6764 228.802 99.3926 230.79 102.424 232.17C105.456 233.55 108.739 234.293 112.069 234.353C131.829 233.151 134.083 213.767 133.707 199.041C133.707 191.903 133.707 184.54 132.655 177.177C146.179 197.087 166.165 213.992 185.925 202.197C215.226 184.615 172.175 148.702 147.381 132.773C178.787 136.38 240.471 141.038 222.89 104.673M214.024 107.754C225.444 129.242 194.49 128.04 182.619 127.439C167.026 126.527 151.466 125.124 135.961 123.232C135.995 121.063 135.793 118.896 135.36 116.77C152.265 104.974 201.552 84.313 214.024 107.754ZM106.508 138.86C102.217 137.519 98.6073 134.578 96.4254 130.648C94.2436 126.718 93.6573 122.099 94.788 117.748C96.3765 113.891 98.9715 110.532 102.302 108.021C105.632 105.51 109.576 103.939 113.721 103.473C136.711 105.125 130.025 145.246 106.508 138.86ZM153.616 54.56C157.329 48.8806 163.042 44.8044 169.62 43.14C183.594 40.586 196.442 53.734 186.149 66.131C177.593 74.6028 168.175 82.1571 158.049 88.671C149.674 95.3755 140.781 101.405 131.452 106.703C130.051 104.572 128.385 102.628 126.493 100.918C133.588 84.4062 142.698 68.8347 153.616 54.56ZM116.501 8.73002C150.836 14.365 128.297 78.228 117.628 96.56C116.353 96.1696 115.045 95.8932 113.721 95.734C111.284 95.7958 108.874 96.2523 106.583 97.086C101.173 75.223 82.015 3.02002 116.501 8.73002ZM35.056 68.16C26.341 53.132 47.98 34.424 62.104 44.567C65.6295 47.5996 68.7373 51.0863 71.346 54.936C82.748 68.6086 92.2274 83.7757 99.521 100.016C96.4284 102.011 93.7286 104.558 91.556 107.529C81.4652 102.82 71.8324 97.1855 62.781 90.699C53.689 84.689 40.691 77.926 35.056 68.159M16.65 136.906C13.3404 135.411 10.7521 132.673 9.4447 129.285C8.13727 125.897 8.21569 122.13 9.66301 118.799C10.3326 115.429 12.137 112.39 14.7755 110.188C17.414 107.987 20.7273 106.757 24.163 106.702C29.9783 106.287 35.8211 106.488 41.594 107.303C57.137 108.716 72.4651 111.918 87.274 116.845C87.274 117.672 86.824 118.498 86.674 119.325C86.4268 121.841 86.6046 124.381 87.2 126.838C73.3492 131.496 59.0022 134.522 44.45 135.854C36.936 136.755 24.539 139.761 16.65 136.906ZM77.508 182.511C65.787 194.533 45.877 216.471 31.451 196.035C14.396 171.843 70.37 145.997 90.205 134.652C92.432 138.482 95.6165 141.666 99.446 143.893C95.794 158.526 88.2074 171.881 77.508 182.511ZM105.983 225.037C89.453 219.101 96.667 199.341 99.071 186.944C101.662 173.358 105.049 159.936 109.214 146.748C111.154 146.848 113.098 146.697 114.999 146.298C124.616 160.873 138.365 236.758 105.983 225.037ZM181.116 172.444C185.624 179.957 190.508 195.584 173.603 197.688C162.633 199.041 153.016 189.273 146.48 182.061C135.852 170.955 128.112 157.411 123.94 142.616C127.88 140.216 131.118 136.821 133.331 132.773C146.895 139.791 159.309 148.836 170.147 159.596C174.453 163.357 178.265 167.648 181.492 172.368L181.116 172.444Z" fill="#528265"/>
<path d="M206.295 164.4C206.295 158.213 208.178 153.393 211.945 149.94C215.718 146.487 220.638 144.76 226.705 144.76C232.772 144.76 237.708 146.467 241.515 149.88C245.328 153.293 247.235 158.133 247.235 164.4V185.1C247.235 191.213 245.328 196.013 241.515 199.5C237.708 202.993 232.772 204.74 226.705 204.74C220.638 204.74 215.698 203.113 211.885 199.86V231.99C211.885 233.497 211.132 234.25 209.625 234.25H208.555C207.048 234.25 206.295 233.497 206.295 231.99V164.4ZM237.415 154.05C234.595 151.67 231.045 150.48 226.765 150.48C222.478 150.48 218.928 151.69 216.115 154.11C213.295 156.523 211.885 159.993 211.885 164.52V193.43C216.725 197.163 221.485 199.03 226.165 199.03C230.845 199.03 234.595 197.8 237.415 195.34C240.228 192.88 241.635 189.39 241.635 184.87V164.52C241.635 159.92 240.228 156.43 237.415 154.05ZM265.555 117.63H266.505C268.018 117.63 268.775 118.383 268.775 119.89V186.18C268.775 194.667 272.382 198.91 279.595 198.91H281.505C282.138 198.91 282.675 199.147 283.115 199.62C283.548 200.1 283.765 200.617 283.765 201.17V202.12C283.765 203.707 282.338 204.5 279.485 204.5C274.085 204.5 269.998 202.953 267.225 199.86C264.445 196.767 263.095 192.243 263.175 186.29V119.89C263.175 118.383 263.968 117.63 265.555 117.63ZM293.285 164.4C293.285 158.133 295.188 153.293 298.995 149.88C302.802 146.467 307.762 144.76 313.875 144.76C319.982 144.76 324.898 146.487 328.625 149.94C332.358 153.393 334.225 158.213 334.225 164.4V190.58C334.225 193.673 334.482 195.797 334.995 196.95C335.508 198.097 336.518 198.87 338.025 199.27L339.335 199.62C340.528 199.86 341.125 200.377 341.125 201.17V202.48C341.125 203.827 340.332 204.5 338.745 204.5C334.858 204.5 332.198 203.35 330.765 201.05C329.338 198.75 328.625 195.22 328.625 190.46V164.4C328.625 159.88 327.238 156.41 324.465 153.99C321.685 151.57 318.155 150.36 313.875 150.36C309.588 150.36 306.018 151.57 303.165 153.99C300.305 156.41 298.875 159.88 298.875 164.4V184.75C298.875 189.43 300.045 192.96 302.385 195.34C304.725 197.72 308.098 198.91 312.505 198.91C316.905 198.91 320.535 197.123 323.395 193.55C323.948 192.837 324.722 192.48 325.715 192.48C326.702 192.48 327.395 193.077 327.795 194.27C328.035 195.223 327.915 196.057 327.435 196.77C324.028 201.923 319.132 204.5 312.745 204.5C306.358 204.5 301.518 202.793 298.225 199.38C294.932 195.973 293.285 191.137 293.285 184.87V164.4ZM368.845 144.76C374.798 144.76 379.362 146.327 382.535 149.46C385.708 152.593 387.295 157.177 387.295 163.21V202.12C387.295 203.707 386.542 204.5 385.035 204.5H384.085C382.498 204.5 381.705 203.707 381.705 202.12V164.52C381.705 155.08 377.382 150.36 368.735 150.36C364.208 150.36 360.358 152.143 357.185 155.71C356.312 156.423 355.558 156.78 354.925 156.78C353.498 156.78 352.745 155.987 352.665 154.4C352.665 153.767 352.825 153.133 353.145 152.5C354.812 150.2 357.032 148.337 359.805 146.91C362.585 145.477 365.598 144.76 368.845 144.76ZM348.735 145.12H349.695C350.328 145.12 350.882 145.34 351.355 145.78C351.835 146.213 352.075 146.787 352.075 147.5V202.12C352.075 202.833 351.835 203.41 351.355 203.85C350.882 204.283 350.328 204.5 349.695 204.5H348.735C348.102 204.5 347.548 204.283 347.075 203.85C346.595 203.41 346.355 202.833 346.355 202.12V147.5C346.355 146.787 346.595 146.213 347.075 145.78C347.548 145.34 348.102 145.12 348.735 145.12ZM404.545 117.63H405.505C407.012 117.63 407.765 118.383 407.765 119.89L407.405 186.18C407.485 190.22 408.615 193.353 410.795 195.58C412.975 197.8 415.852 198.91 419.425 198.91H422.395C423.035 198.91 423.572 199.147 424.005 199.62C424.445 200.1 424.665 200.617 424.665 201.17V202.12C424.665 203.707 422.878 204.5 419.305 204.5C414.072 204.5 409.868 202.893 406.695 199.68C403.522 196.467 401.895 192.003 401.815 186.29L402.165 119.89C402.325 118.383 403.118 117.63 404.545 117.63ZM395.385 145H398.245C398.958 145 399.532 145.24 399.965 145.72C400.405 146.193 400.625 146.747 400.625 147.38V148.1C400.625 148.733 400.405 149.287 399.965 149.76C399.532 150.24 398.958 150.48 398.245 150.48H395.385C394.672 150.48 394.098 150.24 393.665 149.76C393.225 149.287 393.005 148.733 393.005 148.1V147.38C393.005 146.747 393.225 146.193 393.665 145.72C394.098 145.24 394.672 145 395.385 145ZM411.335 145H420.135C420.775 145 421.312 145.24 421.745 145.72C422.178 146.193 422.395 146.747 422.395 147.38V148.1C422.395 148.733 422.178 149.287 421.745 149.76C421.312 150.24 420.775 150.48 420.135 150.48H411.335C410.702 150.48 410.145 150.24 409.665 149.76C409.192 149.287 408.955 148.733 408.955 148.1V147.38C408.955 146.747 409.192 146.193 409.665 145.72C410.145 145.24 410.702 145 411.335 145ZM431.915 192.3C432.708 191.627 434.535 191.29 437.395 191.29C440.248 191.29 442.112 191.667 442.985 192.42C443.858 193.173 444.295 194.74 444.295 197.12V198.67C444.295 201.37 443.858 203.077 442.985 203.79C442.112 204.503 440.248 204.86 437.395 204.86C434.535 204.86 432.708 204.503 431.915 203.79C431.122 203.077 430.725 201.37 430.725 198.67V197.12C430.725 194.587 431.122 192.98 431.915 192.3ZM440.135 197.48C440.135 196.687 439.955 196.15 439.595 195.87C439.235 195.597 438.522 195.46 437.455 195.46C436.382 195.46 435.688 195.577 435.375 195.81C435.055 196.05 434.895 196.607 434.895 197.48V198.67C434.895 199.543 435.055 200.1 435.375 200.34C435.688 200.573 436.402 200.69 437.515 200.69C438.622 200.69 439.335 200.573 439.655 200.34C439.975 200.1 440.135 199.543 440.135 198.67V197.48ZM451.315 164.4C451.315 158.213 453.198 153.393 456.965 149.94C460.738 146.487 465.658 144.76 471.725 144.76C477.792 144.76 482.732 146.467 486.545 149.88C490.352 153.293 492.255 158.133 492.255 164.4V185.1C492.255 191.213 490.352 196.013 486.545 199.5C482.732 202.993 477.792 204.74 471.725 204.74C465.658 204.74 460.718 203.113 456.905 199.86V231.99C456.905 233.497 456.152 234.25 454.645 234.25H453.575C452.068 234.25 451.315 233.497 451.315 231.99V164.4ZM482.435 154.05C479.622 151.67 476.072 150.48 471.785 150.48C467.498 150.48 463.948 151.69 461.135 154.11C458.315 156.523 456.905 159.993 456.905 164.52V193.43C461.745 197.163 466.505 199.03 471.185 199.03C475.872 199.03 479.622 197.8 482.435 195.34C485.248 192.88 486.655 189.39 486.655 184.87V164.52C486.655 159.92 485.248 156.43 482.435 154.05ZM508.555 164.4C508.555 158.133 510.458 153.293 514.265 149.88C518.072 146.467 523.032 144.76 529.145 144.76C535.252 144.76 540.168 146.487 543.895 149.94C547.628 153.393 549.495 158.213 549.495 164.4V190.58C549.495 193.673 549.752 195.797 550.265 196.95C550.778 198.097 551.788 198.87 553.295 199.27L554.605 199.62C555.798 199.86 556.395 200.377 556.395 201.17V202.48C556.395 203.827 555.602 204.5 554.015 204.5C550.128 204.5 547.472 203.35 546.045 201.05C544.612 198.75 543.895 195.22 543.895 190.46V164.4C543.895 159.88 542.508 156.41 539.735 153.99C536.955 151.57 533.425 150.36 529.145 150.36C524.858 150.36 521.288 151.57 518.435 153.99C515.575 156.41 514.145 159.88 514.145 164.4V184.75C514.145 189.43 515.315 192.96 517.655 195.34C519.995 197.72 523.368 198.91 527.775 198.91C532.175 198.91 535.805 197.123 538.665 193.55C539.218 192.837 539.992 192.48 540.985 192.48C541.978 192.48 542.672 193.077 543.065 194.27C543.305 195.223 543.185 196.057 542.705 196.77C539.298 201.923 534.402 204.5 528.015 204.5C521.628 204.5 516.788 202.793 513.495 199.38C510.202 195.973 508.555 191.137 508.555 184.87V164.4ZM565.315 117.63H566.275C567.782 117.63 568.535 118.383 568.535 119.89V186.18C568.535 194.667 572.145 198.91 579.365 198.91H581.265C581.898 198.91 582.435 199.147 582.875 199.62C583.308 200.1 583.525 200.617 583.525 201.17V202.12C583.525 203.707 582.098 204.5 579.245 204.5C573.845 204.5 569.758 202.953 566.985 199.86C564.205 196.767 562.855 192.243 562.935 186.29V119.89C562.935 118.383 563.728 117.63 565.315 117.63Z" fill="#528265"/>
</svg>
